<svg width="286" height="72" viewBox="0 0 286 72" fill="none" xmlns="http://www.w3.org/2000/svg">
<path d="M7.85714 27.5714H1V20.7143H21.5714V27.5714H14.7143V55H7.85714V27.5714ZM31.8571 31H35.2857V27.5714H45.5714V31H49V55H42.1429V34.4286H31.8571V55H25V20.7143H31.8571V31ZM52.4375 31H55.8661V27.5714H73.0089V31H76.4375V44.7143H59.2946V48.1429H76.4375V51.5714H73.0089V55H55.8661V51.5714H52.4375V31ZM59.2946 37.8571H69.5804V34.4286H59.2946V37.8571ZM93.5625 20.7143H114.134V24.1429H117.562V51.5714H114.134V55H93.5625V20.7143ZM107.277 44.7143H110.705V31H107.277V27.5714H100.42V48.1429H107.277V44.7143ZM134.714 55H124.429V51.5714H121V27.5714H127.857V48.1429H138.143V27.5714H145V55H138.143V51.5714H134.714V55ZM155.295 31H158.723V27.5714H169.009V31H172.438V55H165.58V34.4286H155.295V55H148.438V27.5714H155.295V31ZM175.875 55H193.018V48.1429H189.589V51.5714H179.304V48.1429H175.875V31H179.304V27.5714H199.875V58.4286H196.446V61.8571H179.304V58.4286H175.875V55ZM182.732 44.7143H193.018V34.4286H182.732V44.7143ZM203.312 31H206.741V27.5714H223.884V31H227.312V44.7143H210.17V48.1429H227.312V51.5714H223.884V55H206.741V51.5714H203.312V31ZM210.17 37.8571H220.455V34.4286H210.17V37.8571ZM230.75 31H234.179V27.5714H251.321V31H254.75V51.5714H251.321V55H234.179V51.5714H230.75V31ZM247.893 34.4286H237.607V48.1429H247.893V34.4286ZM265.045 31H268.473V27.5714H278.759V31H282.188V55H275.33V34.4286H265.045V55H258.188V27.5714H265.045V31Z" fill="black"/>
<path d="M6.85714 24.5714H0V17.7143H20.5714V24.5714H13.7143V52H6.85714V24.5714ZM30.8571 28H34.2857V24.5714H44.5714V28H48V52H41.1429V31.4286H30.8571V52H24V17.7143H30.8571V28ZM51.4375 28H54.8661V24.5714H72.0089V28H75.4375V41.7143H58.2946V45.1429H75.4375V48.5714H72.0089V52H54.8661V48.5714H51.4375V28ZM58.2946 34.8571H68.5804V31.4286H58.2946V34.8571ZM92.5625 17.7143H113.134V21.1429H116.562V48.5714H113.134V52H92.5625V17.7143ZM106.277 41.7143H109.705V28H106.277V24.5714H99.4196V45.1429H106.277V41.7143ZM133.714 52H123.429V48.5714H120V24.5714H126.857V45.1429H137.143V24.5714H144V52H137.143V48.5714H133.714V52ZM154.295 28H157.723V24.5714H168.009V28H171.438V52H164.58V31.4286H154.295V52H147.438V24.5714H154.295V28ZM174.875 52H192.018V45.1429H188.589V48.5714H178.304V45.1429H174.875V28H178.304V24.5714H198.875V55.4286H195.446V58.8571H178.304V55.4286H174.875V52ZM181.732 41.7143H192.018V31.4286H181.732V41.7143ZM202.312 28H205.741V24.5714H222.884V28H226.312V41.7143H209.17V45.1429H226.312V48.5714H222.884V52H205.741V48.5714H202.312V28ZM209.17 34.8571H219.455V31.4286H209.17V34.8571ZM229.75 28H233.179V24.5714H250.321V28H253.75V48.5714H250.321V52H233.179V48.5714H229.75V28ZM246.893 31.4286H236.607V45.1429H246.893V31.4286ZM264.045 28H267.473V24.5714H277.759V28H281.188V52H274.33V31.4286H264.045V52H257.188V24.5714H264.045V28Z" fill="url(#paint0_linear_75_5)"/>
<defs>
<linearGradient id="paint0_linear_75_5" x1="173.103" y1="69" x2="105.484" y2="6.9934" gradientUnits="userSpaceOnUse">
<stop stop-color="#2D6630"/>
<stop offset="1" stop-color="#3F8541"/>
</linearGradient>
</defs>
</svg>
