<svg width="317" height="72" viewBox="0 0 317 72" fill="none" xmlns="http://www.w3.org/2000/svg">
<path d="M1 20.7143H4.42857V24.1429H1V20.7143ZM4.42857 20.7143H7.85714V24.1429H4.42857V20.7143ZM7.85714 20.7143H11.2857V24.1429H7.85714V20.7143ZM11.2857 20.7143H14.7143V24.1429H11.2857V20.7143ZM14.7143 20.7143H18.1429V24.1429H14.7143V20.7143ZM18.1429 20.7143H21.5714V24.1429H18.1429V20.7143ZM18.1429 24.1429H21.5714V27.5714H18.1429V24.1429ZM14.7143 24.1429H18.1429V27.5714H14.7143V24.1429ZM11.2857 24.1429H14.7143V27.5714H11.2857V24.1429ZM7.85714 24.1429H11.2857V27.5714H7.85714V24.1429ZM4.42857 24.1429H7.85714V27.5714H4.42857V24.1429ZM1 24.1429H4.42857V27.5714H1V24.1429ZM21.5714 24.1429H25V27.5714H21.5714V24.1429ZM18.1429 27.5714H21.5714V31H18.1429V27.5714ZM21.5714 27.5714H25V31H21.5714V27.5714ZM21.5714 31H25V34.4286H21.5714V31ZM21.5714 34.4286H25V37.8571H21.5714V34.4286ZM18.1429 34.4286H21.5714V37.8571H18.1429V34.4286ZM18.1429 31H21.5714V34.4286H18.1429V31ZM18.1429 37.8571H21.5714V41.2857H18.1429V37.8571ZM18.1429 41.2857H21.5714V44.7143H18.1429V41.2857ZM14.7143 41.2857H18.1429V44.7143H14.7143V41.2857ZM14.7143 37.8571H18.1429V41.2857H14.7143V37.8571ZM11.2857 37.8571H14.7143V41.2857H11.2857V37.8571ZM11.2857 41.2857H14.7143V44.7143H11.2857V41.2857ZM7.85714 41.2857H11.2857V44.7143H7.85714V41.2857ZM7.85714 37.8571H11.2857V41.2857H7.85714V37.8571ZM4.42857 37.8571H7.85714V41.2857H4.42857V37.8571ZM1 37.8571H4.42857V41.2857H1V37.8571ZM1 41.2857H4.42857V44.7143H1V41.2857ZM4.42857 41.2857H7.85714V44.7143H4.42857V41.2857ZM1 27.5714H4.42857V31H1V27.5714ZM4.42857 27.5714H7.85714V31H4.42857V27.5714ZM4.42857 31H7.85714V34.4286H4.42857V31ZM4.42857 34.4286H7.85714V37.8571H4.42857V34.4286ZM1 31H4.42857V34.4286H1V31ZM1 34.4286H4.42857V37.8571H1V34.4286ZM1 44.7143H4.42857V48.1429H1V44.7143ZM4.42857 44.7143H7.85714V48.1429H4.42857V44.7143ZM4.42857 48.1429H7.85714V51.5714H4.42857V48.1429ZM4.42857 51.5714H7.85714V55H4.42857V51.5714ZM1 51.5714H4.42857V55H1V51.5714ZM1 48.1429H4.42857V51.5714H1V48.1429ZM21.5714 37.8571H25V41.2857H21.5714V37.8571ZM28.4375 20.7143H31.8661V24.1429H28.4375V20.7143ZM31.8661 20.7143H35.2946V24.1429H31.8661V20.7143ZM31.8661 24.1429H35.2946V27.5714H31.8661V24.1429ZM31.8661 27.5714H35.2946V31H31.8661V27.5714ZM31.8661 31H35.2946V34.4286H31.8661V31ZM31.8661 34.4286H35.2946V37.8571H31.8661V34.4286ZM31.8661 37.8571H35.2946V41.2857H31.8661V37.8571ZM28.4375 37.8571H31.8661V41.2857H28.4375V37.8571ZM28.4375 41.2857H31.8661V44.7143H28.4375V41.2857ZM28.4375 44.7143H31.8661V48.1429H28.4375V44.7143ZM28.4375 48.1429H31.8661V51.5714H28.4375V48.1429ZM28.4375 51.5714H31.8661V55H28.4375V51.5714ZM31.8661 51.5714H35.2946V55H31.8661V51.5714ZM31.8661 48.1429H35.2946V51.5714H31.8661V48.1429ZM31.8661 44.7143H35.2946V48.1429H31.8661V44.7143ZM31.8661 41.2857H35.2946V44.7143H31.8661V41.2857ZM28.4375 34.4286H31.8661V37.8571H28.4375V34.4286ZM28.4375 31H31.8661V34.4286H28.4375V31ZM28.4375 27.5714H31.8661V31H28.4375V27.5714ZM28.4375 24.1429H31.8661V27.5714H28.4375V24.1429ZM59.3214 55H55.8929V51.5714H59.3214V55ZM59.3214 51.5714H55.8929V48.1429H59.3214V51.5714ZM55.8929 51.5714H52.4643V48.1429H55.8929V51.5714ZM52.4643 55H49.0357V51.5714H52.4643V55ZM49.0357 55H45.6071V51.5714H49.0357V55ZM45.6071 55H42.1786V51.5714H45.6071V55ZM45.6071 51.5714H42.1786V48.1429H45.6071V51.5714ZM49.0357 51.5714H45.6071V48.1429H49.0357V51.5714ZM42.1786 51.5714H38.75V48.1429H42.1786V51.5714ZM42.1786 48.1429H38.75V44.7143H42.1786V48.1429ZM42.1786 34.4286H38.75V31H42.1786V34.4286ZM45.6071 34.4286H42.1786V31H45.6071V34.4286ZM45.6071 48.1429H42.1786V44.7143H45.6071V48.1429ZM49.0357 34.4286H45.6071V31H49.0357V34.4286ZM45.6071 31H42.1786V27.5714H45.6071V31ZM49.0357 31H45.6071V27.5714H49.0357V31ZM52.4643 31H49.0357V27.5714H52.4643V31ZM55.8929 31H52.4643V27.5714H55.8929V31ZM59.3214 31H55.8929V27.5714H59.3214V31ZM59.3214 34.4286H55.8929V31H59.3214V34.4286ZM55.8929 34.4286H52.4643V31H55.8929V34.4286ZM59.3214 37.8571H55.8929V34.4286H59.3214V37.8571ZM62.75 34.4286H59.3214V31H62.75V34.4286ZM62.75 37.8571H59.3214V34.4286H62.75V37.8571ZM62.75 41.2857H59.3214V37.8571H62.75V41.2857ZM62.75 44.7143H59.3214V41.2857H62.75V44.7143ZM62.75 48.1429H59.3214V44.7143H62.75V48.1429ZM62.75 51.5714H59.3214V48.1429H62.75V51.5714ZM59.3214 48.1429H55.8929V44.7143H59.3214V48.1429ZM59.3214 44.7143H55.8929V41.2857H59.3214V44.7143ZM59.3214 41.2857H55.8929V37.8571H59.3214V41.2857ZM52.4643 34.4286H49.0357V31H52.4643V34.4286ZM52.4643 51.5714H49.0357V48.1429H52.4643V51.5714ZM59.3214 51.5714H62.75V55H59.3214V51.5714ZM52.4643 37.8571H55.8929V41.2857H52.4643V37.8571ZM49.0357 37.8571H52.4643V41.2857H49.0357V37.8571ZM45.6071 37.8571H49.0357V41.2857H45.6071V37.8571ZM42.1786 37.8571H45.6071V41.2857H42.1786V37.8571ZM38.75 41.2857H42.1786V44.7143H38.75V41.2857ZM42.1786 41.2857H45.6071V44.7143H42.1786V41.2857ZM52.4643 41.2857H55.8929V44.7143H52.4643V41.2857ZM49.0357 41.2857H52.4643V44.7143H49.0357V41.2857ZM45.6071 41.2857H49.0357V44.7143H45.6071V41.2857ZM79.9018 48.1429H83.3304V51.5714H79.9018V48.1429ZM79.9018 51.5714H83.3304V55H79.9018V51.5714ZM76.4732 51.5714H79.9018V55H76.4732V51.5714ZM76.4732 48.1429H79.9018V51.5714H76.4732V48.1429ZM73.0446 51.5714H76.4732V55H73.0446V51.5714ZM73.0446 48.1429H76.4732V51.5714H73.0446V48.1429ZM69.6161 48.1429H73.0446V51.5714H69.6161V48.1429ZM69.6161 44.7143H73.0446V48.1429H69.6161V44.7143ZM69.6161 41.2857H73.0446V44.7143H69.6161V41.2857ZM69.6161 37.8571H73.0446V41.2857H69.6161V37.8571ZM69.6161 34.4286H73.0446V37.8571H69.6161V34.4286ZM69.6161 31H73.0446V34.4286H69.6161V31ZM73.0446 41.2857H76.4732V44.7143H73.0446V41.2857ZM73.0446 44.7143H76.4732V48.1429H73.0446V44.7143ZM73.0446 37.8571H76.4732V41.2857H73.0446V37.8571ZM73.0446 34.4286H76.4732V37.8571H73.0446V34.4286ZM73.0446 20.7143H76.4732V24.1429H73.0446V20.7143ZM73.0446 24.1429H76.4732V27.5714H73.0446V24.1429ZM73.0446 27.5714H76.4732V31H73.0446V27.5714ZM73.0446 31H76.4732V34.4286H73.0446V31ZM69.6161 27.5714H73.0446V31H69.6161V27.5714ZM66.1875 31H69.6161V34.4286H66.1875V31ZM76.4732 31H79.9018V34.4286H76.4732V31ZM79.9018 31H83.3304V34.4286H79.9018V31ZM69.6161 24.1429H73.0446V27.5714H69.6161V24.1429ZM66.1875 34.4286H69.6161V37.8571H66.1875V34.4286ZM76.4732 34.4286H79.9018V37.8571H76.4732V34.4286ZM79.9018 34.4286H83.3304V37.8571H79.9018V34.4286ZM100.464 20.7143H103.893V24.1429H100.464V20.7143ZM100.464 24.1429H103.893V27.5714H100.464V24.1429ZM97.0357 24.1429H100.464V27.5714H97.0357V24.1429ZM97.0357 20.7143H100.464V24.1429H97.0357V20.7143ZM93.6071 20.7143H97.0357V24.1429H93.6071V20.7143ZM93.6071 24.1429H97.0357V27.5714H93.6071V24.1429ZM93.6071 27.5714H97.0357V31H93.6071V27.5714ZM90.1786 24.1429H93.6071V27.5714H90.1786V24.1429ZM90.1786 27.5714H93.6071V31H90.1786V27.5714ZM90.1786 31H93.6071V34.4286H90.1786V31ZM90.1786 34.4286H93.6071V37.8571H90.1786V34.4286ZM93.6071 34.4286H97.0357V37.8571H93.6071V34.4286ZM93.6071 31H97.0357V34.4286H93.6071V31ZM90.1786 51.5714H93.6071V55H90.1786V51.5714ZM90.1786 48.1429H93.6071V51.5714H90.1786V48.1429ZM90.1786 44.7143H93.6071V48.1429H90.1786V44.7143ZM90.1786 41.2857H93.6071V44.7143H90.1786V41.2857ZM90.1786 37.8571H93.6071V41.2857H90.1786V37.8571ZM93.6071 37.8571H97.0357V41.2857H93.6071V37.8571ZM93.6071 41.2857H97.0357V44.7143H93.6071V41.2857ZM93.6071 44.7143H97.0357V48.1429H93.6071V44.7143ZM93.6071 48.1429H97.0357V51.5714H93.6071V48.1429ZM93.6071 51.5714H97.0357V55H93.6071V51.5714ZM86.75 31H90.1786V34.4286H86.75V31ZM97.0357 31H100.464V34.4286H97.0357V31ZM100.464 31H103.893V34.4286H100.464V31ZM86.75 34.4286H90.1786V37.8571H86.75V34.4286ZM97.0357 34.4286H100.464V37.8571H97.0357V34.4286ZM100.464 34.4286H103.893V37.8571H100.464V34.4286ZM114.17 27.5714H117.598V31H114.17V27.5714ZM110.741 27.5714H114.17V31H110.741V27.5714ZM110.741 31H114.17V34.4286H110.741V31ZM114.17 31H117.598V34.4286H114.17V31ZM117.598 27.5714H121.027V31H117.598V27.5714ZM121.027 27.5714H124.455V31H121.027V27.5714ZM124.455 27.5714H127.884V31H124.455V27.5714ZM124.455 31H127.884V34.4286H124.455V31ZM121.027 31H124.455V34.4286H121.027V31ZM124.455 37.8571H127.884V41.2857H124.455V37.8571ZM127.884 31H131.312V34.4286H127.884V31ZM127.884 34.4286H131.312V37.8571H127.884V34.4286ZM127.884 37.8571H131.312V41.2857H127.884V37.8571ZM127.884 41.2857H131.312V44.7143H127.884V41.2857ZM127.884 44.7143H131.312V48.1429H127.884V44.7143ZM127.884 48.1429H131.312V51.5714H127.884V48.1429ZM124.455 48.1429H127.884V51.5714H124.455V48.1429ZM124.455 44.7143H127.884V48.1429H124.455V44.7143ZM124.455 41.2857H127.884V44.7143H124.455V41.2857ZM124.455 34.4286H127.884V37.8571H124.455V34.4286ZM121.027 48.1429H124.455V51.5714H121.027V48.1429ZM124.455 51.5714H127.884V55H124.455V51.5714ZM121.027 51.5714H124.455V55H121.027V51.5714ZM117.598 51.5714H121.027V55H117.598V51.5714ZM114.17 51.5714H117.598V55H114.17V51.5714ZM110.741 51.5714H114.17V55H110.741V51.5714ZM110.741 48.1429H114.17V51.5714H110.741V48.1429ZM114.17 48.1429H117.598V51.5714H114.17V48.1429ZM110.741 44.7143H114.17V48.1429H110.741V44.7143ZM107.312 48.1429H110.741V51.5714H107.312V48.1429ZM107.312 44.7143H110.741V48.1429H107.312V44.7143ZM107.312 41.2857H110.741V44.7143H107.312V41.2857ZM107.312 37.8571H110.741V41.2857H107.312V37.8571ZM107.312 34.4286H110.741V37.8571H107.312V34.4286ZM107.312 31H110.741V34.4286H107.312V31ZM110.741 34.4286H114.17V37.8571H110.741V34.4286ZM110.741 37.8571H114.17V41.2857H110.741V37.8571ZM110.741 41.2857H114.17V44.7143H110.741V41.2857ZM117.598 48.1429H121.027V51.5714H117.598V48.1429ZM117.598 31H121.027V34.4286H117.598V31ZM134.75 31H138.179V34.4286H134.75V31ZM134.75 27.5714H138.179V31H134.75V27.5714ZM138.179 27.5714H141.607V31H138.179V27.5714ZM138.179 31H141.607V34.4286H138.179V31ZM138.179 34.4286H141.607V37.8571H138.179V34.4286ZM138.179 37.8571H141.607V41.2857H138.179V37.8571ZM138.179 41.2857H141.607V44.7143H138.179V41.2857ZM134.75 41.2857H138.179V44.7143H134.75V41.2857ZM134.75 37.8571H138.179V41.2857H134.75V37.8571ZM134.75 34.4286H138.179V37.8571H134.75V34.4286ZM134.75 44.7143H138.179V48.1429H134.75V44.7143ZM138.179 44.7143H141.607V48.1429H138.179V44.7143ZM138.179 48.1429H141.607V51.5714H138.179V48.1429ZM138.179 51.5714H141.607V55H138.179V51.5714ZM134.75 51.5714H138.179V55H134.75V51.5714ZM134.75 48.1429H138.179V51.5714H134.75V48.1429ZM141.607 31H145.036V34.4286H141.607V31ZM145.036 31H148.464V34.4286H145.036V31ZM148.464 31H151.893V34.4286H148.464V31ZM148.464 27.5714H151.893V31H148.464V27.5714ZM145.036 27.5714H148.464V31H145.036V27.5714ZM141.607 34.4286H145.036V37.8571H141.607V34.4286ZM151.893 31H155.321V34.4286H151.893V31ZM148.464 34.4286H151.893V37.8571H148.464V34.4286ZM158.75 31H162.179V34.4286H158.75V31ZM158.75 27.5714H162.179V31H158.75V27.5714ZM162.179 27.5714H165.607V31H162.179V27.5714ZM162.179 31H165.607V34.4286H162.179V31ZM162.179 34.4286H165.607V37.8571H162.179V34.4286ZM162.179 37.8571H165.607V41.2857H162.179V37.8571ZM162.179 41.2857H165.607V44.7143H162.179V41.2857ZM158.75 41.2857H162.179V44.7143H158.75V41.2857ZM158.75 37.8571H162.179V41.2857H158.75V37.8571ZM158.75 34.4286H162.179V37.8571H158.75V34.4286ZM158.75 44.7143H162.179V48.1429H158.75V44.7143ZM162.179 44.7143H165.607V48.1429H162.179V44.7143ZM162.179 48.1429H165.607V51.5714H162.179V48.1429ZM162.179 51.5714H165.607V55H162.179V51.5714ZM158.75 51.5714H162.179V55H158.75V51.5714ZM158.75 48.1429H162.179V51.5714H158.75V48.1429ZM172.464 51.5714H175.893V55H172.464V51.5714ZM175.893 51.5714H179.321V55H175.893V51.5714ZM175.893 48.1429H179.321V51.5714H175.893V48.1429ZM175.893 44.7143H179.321V48.1429H175.893V44.7143ZM175.893 41.2857H179.321V44.7143H175.893V41.2857ZM175.893 37.8571H179.321V41.2857H175.893V37.8571ZM175.893 34.4286H179.321V37.8571H175.893V34.4286ZM175.893 31H179.321V34.4286H175.893V31ZM172.464 37.8571H175.893V41.2857H172.464V37.8571ZM172.464 41.2857H175.893V44.7143H172.464V41.2857ZM172.464 44.7143H175.893V48.1429H172.464V44.7143ZM172.464 48.1429H175.893V51.5714H172.464V48.1429ZM172.464 34.4286H175.893V37.8571H172.464V34.4286ZM165.607 31H169.036V34.4286H165.607V31ZM169.036 31H172.464V34.4286H169.036V31ZM172.464 27.5714H175.893V31H172.464V27.5714ZM172.464 31H175.893V34.4286H172.464V31ZM169.036 27.5714H172.464V31H169.036V27.5714ZM186.179 51.5714H189.607V55H186.179V51.5714ZM189.607 51.5714H193.036V55H189.607V51.5714ZM189.607 48.1429H193.036V51.5714H189.607V48.1429ZM189.607 44.7143H193.036V48.1429H189.607V44.7143ZM189.607 41.2857H193.036V44.7143H189.607V41.2857ZM189.607 37.8571H193.036V41.2857H189.607V37.8571ZM189.607 34.4286H193.036V37.8571H189.607V34.4286ZM189.607 31H193.036V34.4286H189.607V31ZM186.179 37.8571H189.607V41.2857H186.179V37.8571ZM186.179 41.2857H189.607V44.7143H186.179V41.2857ZM186.179 44.7143H189.607V48.1429H186.179V44.7143ZM186.179 48.1429H189.607V51.5714H186.179V48.1429ZM186.179 34.4286H189.607V37.8571H186.179V34.4286ZM179.321 31H182.75V34.4286H179.321V31ZM182.75 31H186.179V34.4286H182.75V31ZM186.179 27.5714H189.607V31H186.179V27.5714ZM186.179 31H189.607V34.4286H186.179V31ZM182.75 27.5714H186.179V31H182.75V27.5714ZM203.295 27.5714H206.723V31H203.295V27.5714ZM199.866 27.5714H203.295V31H199.866V27.5714ZM199.866 31H203.295V34.4286H199.866V31ZM203.295 31H206.723V34.4286H203.295V31ZM206.723 27.5714H210.152V31H206.723V27.5714ZM210.152 27.5714H213.58V31H210.152V27.5714ZM213.58 27.5714H217.009V31H213.58V27.5714ZM213.58 31H217.009V34.4286H213.58V31ZM210.152 31H213.58V34.4286H210.152V31ZM217.009 31H220.438V34.4286H217.009V31ZM217.009 34.4286H220.438V37.8571H217.009V34.4286ZM217.009 48.1429H220.438V51.5714H217.009V48.1429ZM213.58 48.1429H217.009V51.5714H213.58V48.1429ZM213.58 34.4286H217.009V37.8571H213.58V34.4286ZM210.152 48.1429H213.58V51.5714H210.152V48.1429ZM213.58 51.5714H217.009V55H213.58V51.5714ZM210.152 51.5714H213.58V55H210.152V51.5714ZM206.723 51.5714H210.152V55H206.723V51.5714ZM203.295 51.5714H206.723V55H203.295V51.5714ZM199.866 51.5714H203.295V55H199.866V51.5714ZM199.866 48.1429H203.295V51.5714H199.866V48.1429ZM203.295 48.1429H206.723V51.5714H203.295V48.1429ZM199.866 44.7143H203.295V48.1429H199.866V44.7143ZM196.438 48.1429H199.866V51.5714H196.438V48.1429ZM196.438 44.7143H199.866V48.1429H196.438V44.7143ZM196.438 41.2857H199.866V44.7143H196.438V41.2857ZM196.438 37.8571H199.866V41.2857H196.438V37.8571ZM196.438 34.4286H199.866V37.8571H196.438V34.4286ZM196.438 31H199.866V34.4286H196.438V31ZM199.866 34.4286H203.295V37.8571H199.866V34.4286ZM199.866 37.8571H203.295V41.2857H199.866V37.8571ZM199.866 41.2857H203.295V44.7143H199.866V41.2857ZM206.723 48.1429H210.152V51.5714H206.723V48.1429ZM206.723 31H210.152V34.4286H206.723V31ZM213.58 37.8571H217.009V41.2857H213.58V37.8571ZM217.009 37.8571H220.438V41.2857H217.009V37.8571ZM203.295 41.2857H206.723V44.7143H203.295V41.2857ZM206.723 41.2857H210.152V44.7143H206.723V41.2857ZM210.152 41.2857H213.58V44.7143H210.152V41.2857ZM213.58 41.2857H217.009V44.7143H213.58V41.2857ZM217.009 41.2857H220.438V44.7143H217.009V41.2857ZM210.152 37.8571H213.58V41.2857H210.152V37.8571ZM206.723 37.8571H210.152V41.2857H206.723V37.8571ZM203.295 37.8571H206.723V41.2857H203.295V37.8571ZM223.875 31H227.304V34.4286H223.875V31ZM223.875 27.5714H227.304V31H223.875V27.5714ZM227.304 27.5714H230.732V31H227.304V27.5714ZM227.304 31H230.732V34.4286H227.304V31ZM227.304 34.4286H230.732V37.8571H227.304V34.4286ZM227.304 37.8571H230.732V41.2857H227.304V37.8571ZM227.304 41.2857H230.732V44.7143H227.304V41.2857ZM223.875 41.2857H227.304V44.7143H223.875V41.2857ZM223.875 37.8571H227.304V41.2857H223.875V37.8571ZM223.875 34.4286H227.304V37.8571H223.875V34.4286ZM223.875 44.7143H227.304V48.1429H223.875V44.7143ZM227.304 44.7143H230.732V48.1429H227.304V44.7143ZM227.304 48.1429H230.732V51.5714H227.304V48.1429ZM227.304 51.5714H230.732V55H227.304V51.5714ZM223.875 51.5714H227.304V55H223.875V51.5714ZM223.875 48.1429H227.304V51.5714H223.875V48.1429ZM230.732 31H234.161V34.4286H230.732V31ZM234.161 31H237.589V34.4286H234.161V31ZM237.589 31H241.018V34.4286H237.589V31ZM237.589 27.5714H241.018V31H237.589V27.5714ZM234.161 27.5714H237.589V31H234.161V27.5714ZM230.732 34.4286H234.161V37.8571H230.732V34.4286ZM241.018 31H244.446V34.4286H241.018V31ZM237.589 34.4286H241.018V37.8571H237.589V34.4286ZM271.848 51.5714H275.277V55H271.848V51.5714ZM271.848 48.1429H275.277V51.5714H271.848V48.1429ZM271.848 44.7143H275.277V48.1429H271.848V44.7143ZM268.42 48.1429H271.848V51.5714H268.42V48.1429ZM268.42 44.7143H271.848V48.1429H268.42V44.7143ZM268.42 41.2857H271.848V44.7143H268.42V41.2857ZM264.991 44.7143H268.42V48.1429H264.991V44.7143ZM264.991 41.2857H268.42V44.7143H264.991V41.2857ZM275.277 44.7143H278.705V48.1429H275.277V44.7143ZM275.277 48.1429H278.705V51.5714H275.277V48.1429ZM275.277 41.2857H278.705V44.7143H275.277V41.2857ZM278.705 41.2857H282.134V44.7143H278.705V41.2857ZM278.705 44.7143H282.134V48.1429H278.705V44.7143ZM282.134 41.2857H285.562V44.7143H282.134V41.2857ZM261.562 41.2857H264.991V44.7143H261.562V41.2857ZM278.705 20.7143H282.134V24.1429H278.705V20.7143ZM282.134 20.7143H285.562V24.1429H282.134V20.7143ZM282.134 24.1429H285.562V27.5714H282.134V24.1429ZM282.134 27.5714H285.562V31H282.134V27.5714ZM282.134 31H285.562V34.4286H282.134V31ZM282.134 34.4286H285.562V37.8571H282.134V34.4286ZM278.705 34.4286H282.134V37.8571H278.705V34.4286ZM278.705 37.8571H282.134V41.2857H278.705V37.8571ZM278.705 31H282.134V34.4286H278.705V31ZM278.705 27.5714H282.134V31H278.705V27.5714ZM278.705 24.1429H282.134V27.5714H278.705V24.1429ZM282.134 37.8571H285.562V41.2857H282.134V37.8571ZM264.991 37.8571H268.42V41.2857H264.991V37.8571ZM261.562 37.8571H264.991V41.2857H261.562V37.8571ZM261.562 34.4286H264.991V37.8571H261.562V34.4286ZM264.991 34.4286H268.42V37.8571H264.991V34.4286ZM264.991 31H268.42V34.4286H264.991V31ZM261.562 31H264.991V34.4286H261.562V31ZM261.562 27.5714H264.991V31H261.562V27.5714ZM264.991 27.5714H268.42V31H264.991V27.5714ZM261.562 20.7143H264.991V24.1429H261.562V20.7143ZM264.991 20.7143H268.42V24.1429H264.991V20.7143ZM264.991 24.1429H268.42V27.5714H264.991V24.1429ZM261.562 24.1429H264.991V27.5714H261.562V24.1429ZM289 24.1429H292.429V27.5714H289V24.1429ZM289 27.5714H292.429V31H289V27.5714ZM292.429 27.5714H295.857V31H292.429V27.5714ZM292.429 24.1429H295.857V27.5714H292.429V24.1429ZM292.429 20.7143H295.857V24.1429H292.429V20.7143ZM295.857 20.7143H299.286V24.1429H295.857V20.7143ZM299.286 20.7143H302.714V24.1429H299.286V20.7143ZM302.714 20.7143H306.143V24.1429H302.714V20.7143ZM306.143 20.7143H309.571V24.1429H306.143V20.7143ZM306.143 24.1429H309.571V27.5714H306.143V24.1429ZM302.714 24.1429H306.143V27.5714H302.714V24.1429ZM299.286 24.1429H302.714V27.5714H299.286V24.1429ZM295.857 24.1429H299.286V27.5714H295.857V24.1429ZM306.143 27.5714H309.571V31H306.143V27.5714ZM309.571 27.5714H313V31H309.571V27.5714ZM309.571 24.1429H313V27.5714H309.571V24.1429ZM309.571 31H313V34.4286H309.571V31ZM306.143 31H309.571V34.4286H306.143V31ZM302.714 31H306.143V34.4286H302.714V31ZM302.714 34.4286H306.143V37.8571H302.714V34.4286ZM306.143 34.4286H309.571V37.8571H306.143V34.4286ZM299.286 34.4286H302.714V37.8571H299.286V34.4286ZM299.286 37.8571H302.714V41.2857H299.286V37.8571ZM302.714 37.8571H306.143V41.2857H302.714V37.8571ZM295.857 37.8571H299.286V41.2857H295.857V37.8571ZM295.857 41.2857H299.286V44.7143H295.857V41.2857ZM299.286 41.2857H302.714V44.7143H299.286V41.2857ZM292.429 41.2857H295.857V44.7143H292.429V41.2857ZM292.429 44.7143H295.857V48.1429H292.429V44.7143ZM295.857 44.7143H299.286V48.1429H295.857V44.7143ZM289 44.7143H292.429V48.1429H289V44.7143ZM289 48.1429H292.429V51.5714H289V48.1429ZM289 51.5714H292.429V55H289V51.5714ZM292.429 51.5714H295.857V55H292.429V51.5714ZM292.429 48.1429H295.857V51.5714H292.429V48.1429ZM295.857 48.1429H299.286V51.5714H295.857V48.1429ZM299.286 48.1429H302.714V51.5714H299.286V48.1429ZM299.286 51.5714H302.714V55H299.286V51.5714ZM302.714 51.5714H306.143V55H302.714V51.5714ZM306.143 51.5714H309.571V55H306.143V51.5714ZM309.571 51.5714H313V55H309.571V51.5714ZM309.571 48.1429H313V51.5714H309.571V48.1429ZM306.143 48.1429H309.571V51.5714H306.143V48.1429ZM302.714 48.1429H306.143V51.5714H302.714V48.1429ZM295.857 51.5714H299.286V55H295.857V51.5714Z" fill="black"/>
<path d="M0 17.7143H3.42857V21.1429H0V17.7143ZM3.42857 17.7143H6.85714V21.1429H3.42857V17.7143ZM6.85714 17.7143H10.2857V21.1429H6.85714V17.7143ZM10.2857 17.7143H13.7143V21.1429H10.2857V17.7143ZM13.7143 17.7143H17.1429V21.1429H13.7143V17.7143ZM17.1429 17.7143H20.5714V21.1429H17.1429V17.7143ZM17.1429 21.1429H20.5714V24.5714H17.1429V21.1429ZM13.7143 21.1429H17.1429V24.5714H13.7143V21.1429ZM10.2857 21.1429H13.7143V24.5714H10.2857V21.1429ZM6.85714 21.1429H10.2857V24.5714H6.85714V21.1429ZM3.42857 21.1429H6.85714V24.5714H3.42857V21.1429ZM0 21.1429H3.42857V24.5714H0V21.1429ZM20.5714 21.1429H24V24.5714H20.5714V21.1429ZM17.1429 24.5714H20.5714V28H17.1429V24.5714ZM20.5714 24.5714H24V28H20.5714V24.5714ZM20.5714 28H24V31.4286H20.5714V28ZM20.5714 31.4286H24V34.8571H20.5714V31.4286ZM17.1429 31.4286H20.5714V34.8571H17.1429V31.4286ZM17.1429 28H20.5714V31.4286H17.1429V28ZM17.1429 34.8571H20.5714V38.2857H17.1429V34.8571ZM17.1429 38.2857H20.5714V41.7143H17.1429V38.2857ZM13.7143 38.2857H17.1429V41.7143H13.7143V38.2857ZM13.7143 34.8571H17.1429V38.2857H13.7143V34.8571ZM10.2857 34.8571H13.7143V38.2857H10.2857V34.8571ZM10.2857 38.2857H13.7143V41.7143H10.2857V38.2857ZM6.85714 38.2857H10.2857V41.7143H6.85714V38.2857ZM6.85714 34.8571H10.2857V38.2857H6.85714V34.8571ZM3.42857 34.8571H6.85714V38.2857H3.42857V34.8571ZM0 34.8571H3.42857V38.2857H0V34.8571ZM0 38.2857H3.42857V41.7143H0V38.2857ZM3.42857 38.2857H6.85714V41.7143H3.42857V38.2857ZM0 24.5714H3.42857V28H0V24.5714ZM3.42857 24.5714H6.85714V28H3.42857V24.5714ZM3.42857 28H6.85714V31.4286H3.42857V28ZM3.42857 31.4286H6.85714V34.8571H3.42857V31.4286ZM0 28H3.42857V31.4286H0V28ZM0 31.4286H3.42857V34.8571H0V31.4286ZM0 41.7143H3.42857V45.1429H0V41.7143ZM3.42857 41.7143H6.85714V45.1429H3.42857V41.7143ZM3.42857 45.1429H6.85714V48.5714H3.42857V45.1429ZM3.42857 48.5714H6.85714V52H3.42857V48.5714ZM0 48.5714H3.42857V52H0V48.5714ZM0 45.1429H3.42857V48.5714H0V45.1429ZM20.5714 34.8571H24V38.2857H20.5714V34.8571ZM27.4375 17.7143H30.8661V21.1429H27.4375V17.7143ZM30.8661 17.7143H34.2946V21.1429H30.8661V17.7143ZM30.8661 21.1429H34.2946V24.5714H30.8661V21.1429ZM30.8661 24.5714H34.2946V28H30.8661V24.5714ZM30.8661 28H34.2946V31.4286H30.8661V28ZM30.8661 31.4286H34.2946V34.8571H30.8661V31.4286ZM30.8661 34.8571H34.2946V38.2857H30.8661V34.8571ZM27.4375 34.8571H30.8661V38.2857H27.4375V34.8571ZM27.4375 38.2857H30.8661V41.7143H27.4375V38.2857ZM27.4375 41.7143H30.8661V45.1429H27.4375V41.7143ZM27.4375 45.1429H30.8661V48.5714H27.4375V45.1429ZM27.4375 48.5714H30.8661V52H27.4375V48.5714ZM30.8661 48.5714H34.2946V52H30.8661V48.5714ZM30.8661 45.1429H34.2946V48.5714H30.8661V45.1429ZM30.8661 41.7143H34.2946V45.1429H30.8661V41.7143ZM30.8661 38.2857H34.2946V41.7143H30.8661V38.2857ZM27.4375 31.4286H30.8661V34.8571H27.4375V31.4286ZM27.4375 28H30.8661V31.4286H27.4375V28ZM27.4375 24.5714H30.8661V28H27.4375V24.5714ZM27.4375 21.1429H30.8661V24.5714H27.4375V21.1429ZM58.3214 52H54.8929V48.5714H58.3214V52ZM58.3214 48.5714H54.8929V45.1429H58.3214V48.5714ZM54.8929 48.5714H51.4643V45.1429H54.8929V48.5714ZM51.4643 52H48.0357V48.5714H51.4643V52ZM48.0357 52H44.6071V48.5714H48.0357V52ZM44.6071 52H41.1786V48.5714H44.6071V52ZM44.6071 48.5714H41.1786V45.1429H44.6071V48.5714ZM48.0357 48.5714H44.6071V45.1429H48.0357V48.5714ZM41.1786 48.5714H37.75V45.1429H41.1786V48.5714ZM41.1786 45.1429H37.75V41.7143H41.1786V45.1429ZM41.1786 31.4286H37.75V28H41.1786V31.4286ZM44.6071 31.4286H41.1786V28H44.6071V31.4286ZM44.6071 45.1429H41.1786V41.7143H44.6071V45.1429ZM48.0357 31.4286H44.6071V28H48.0357V31.4286ZM44.6071 28H41.1786V24.5714H44.6071V28ZM48.0357 28H44.6071V24.5714H48.0357V28ZM51.4643 28H48.0357V24.5714H51.4643V28ZM54.8929 28H51.4643V24.5714H54.8929V28ZM58.3214 28H54.8929V24.5714H58.3214V28ZM58.3214 31.4286H54.8929V28H58.3214V31.4286ZM54.8929 31.4286H51.4643V28H54.8929V31.4286ZM58.3214 34.8571H54.8929V31.4286H58.3214V34.8571ZM61.75 31.4286H58.3214V28H61.75V31.4286ZM61.75 34.8571H58.3214V31.4286H61.75V34.8571ZM61.75 38.2857H58.3214V34.8571H61.75V38.2857ZM61.75 41.7143H58.3214V38.2857H61.75V41.7143ZM61.75 45.1429H58.3214V41.7143H61.75V45.1429ZM61.75 48.5714H58.3214V45.1429H61.75V48.5714ZM58.3214 45.1429H54.8929V41.7143H58.3214V45.1429ZM58.3214 41.7143H54.8929V38.2857H58.3214V41.7143ZM58.3214 38.2857H54.8929V34.8571H58.3214V38.2857ZM51.4643 31.4286H48.0357V28H51.4643V31.4286ZM51.4643 48.5714H48.0357V45.1429H51.4643V48.5714ZM58.3214 48.5714H61.75V52H58.3214V48.5714ZM51.4643 34.8571H54.8929V38.2857H51.4643V34.8571ZM48.0357 34.8571H51.4643V38.2857H48.0357V34.8571ZM44.6071 34.8571H48.0357V38.2857H44.6071V34.8571ZM41.1786 34.8571H44.6071V38.2857H41.1786V34.8571ZM37.75 38.2857H41.1786V41.7143H37.75V38.2857ZM41.1786 38.2857H44.6071V41.7143H41.1786V38.2857ZM51.4643 38.2857H54.8929V41.7143H51.4643V38.2857ZM48.0357 38.2857H51.4643V41.7143H48.0357V38.2857ZM44.6071 38.2857H48.0357V41.7143H44.6071V38.2857ZM78.9018 45.1429H82.3304V48.5714H78.9018V45.1429ZM78.9018 48.5714H82.3304V52H78.9018V48.5714ZM75.4732 48.5714H78.9018V52H75.4732V48.5714ZM75.4732 45.1429H78.9018V48.5714H75.4732V45.1429ZM72.0446 48.5714H75.4732V52H72.0446V48.5714ZM72.0446 45.1429H75.4732V48.5714H72.0446V45.1429ZM68.6161 45.1429H72.0446V48.5714H68.6161V45.1429ZM68.6161 41.7143H72.0446V45.1429H68.6161V41.7143ZM68.6161 38.2857H72.0446V41.7143H68.6161V38.2857ZM68.6161 34.8571H72.0446V38.2857H68.6161V34.8571ZM68.6161 31.4286H72.0446V34.8571H68.6161V31.4286ZM68.6161 28H72.0446V31.4286H68.6161V28ZM72.0446 38.2857H75.4732V41.7143H72.0446V38.2857ZM72.0446 41.7143H75.4732V45.1429H72.0446V41.7143ZM72.0446 34.8571H75.4732V38.2857H72.0446V34.8571ZM72.0446 31.4286H75.4732V34.8571H72.0446V31.4286ZM72.0446 17.7143H75.4732V21.1429H72.0446V17.7143ZM72.0446 21.1429H75.4732V24.5714H72.0446V21.1429ZM72.0446 24.5714H75.4732V28H72.0446V24.5714ZM72.0446 28H75.4732V31.4286H72.0446V28ZM68.6161 24.5714H72.0446V28H68.6161V24.5714ZM65.1875 28H68.6161V31.4286H65.1875V28ZM75.4732 28H78.9018V31.4286H75.4732V28ZM78.9018 28H82.3304V31.4286H78.9018V28ZM68.6161 21.1429H72.0446V24.5714H68.6161V21.1429ZM65.1875 31.4286H68.6161V34.8571H65.1875V31.4286ZM75.4732 31.4286H78.9018V34.8571H75.4732V31.4286ZM78.9018 31.4286H82.3304V34.8571H78.9018V31.4286ZM99.4643 17.7143H102.893V21.1429H99.4643V17.7143ZM99.4643 21.1429H102.893V24.5714H99.4643V21.1429ZM96.0357 21.1429H99.4643V24.5714H96.0357V21.1429ZM96.0357 17.7143H99.4643V21.1429H96.0357V17.7143ZM92.6071 17.7143H96.0357V21.1429H92.6071V17.7143ZM92.6071 21.1429H96.0357V24.5714H92.6071V21.1429ZM92.6071 24.5714H96.0357V28H92.6071V24.5714ZM89.1786 21.1429H92.6071V24.5714H89.1786V21.1429ZM89.1786 24.5714H92.6071V28H89.1786V24.5714ZM89.1786 28H92.6071V31.4286H89.1786V28ZM89.1786 31.4286H92.6071V34.8571H89.1786V31.4286ZM92.6071 31.4286H96.0357V34.8571H92.6071V31.4286ZM92.6071 28H96.0357V31.4286H92.6071V28ZM89.1786 48.5714H92.6071V52H89.1786V48.5714ZM89.1786 45.1429H92.6071V48.5714H89.1786V45.1429ZM89.1786 41.7143H92.6071V45.1429H89.1786V41.7143ZM89.1786 38.2857H92.6071V41.7143H89.1786V38.2857ZM89.1786 34.8571H92.6071V38.2857H89.1786V34.8571ZM92.6071 34.8571H96.0357V38.2857H92.6071V34.8571ZM92.6071 38.2857H96.0357V41.7143H92.6071V38.2857ZM92.6071 41.7143H96.0357V45.1429H92.6071V41.7143ZM92.6071 45.1429H96.0357V48.5714H92.6071V45.1429ZM92.6071 48.5714H96.0357V52H92.6071V48.5714ZM85.75 28H89.1786V31.4286H85.75V28ZM96.0357 28H99.4643V31.4286H96.0357V28ZM99.4643 28H102.893V31.4286H99.4643V28ZM85.75 31.4286H89.1786V34.8571H85.75V31.4286ZM96.0357 31.4286H99.4643V34.8571H96.0357V31.4286ZM99.4643 31.4286H102.893V34.8571H99.4643V31.4286ZM113.17 24.5714H116.598V28H113.17V24.5714ZM109.741 24.5714H113.17V28H109.741V24.5714ZM109.741 28H113.17V31.4286H109.741V28ZM113.17 28H116.598V31.4286H113.17V28ZM116.598 24.5714H120.027V28H116.598V24.5714ZM120.027 24.5714H123.455V28H120.027V24.5714ZM123.455 24.5714H126.884V28H123.455V24.5714ZM123.455 28H126.884V31.4286H123.455V28ZM120.027 28H123.455V31.4286H120.027V28ZM123.455 34.8571H126.884V38.2857H123.455V34.8571ZM126.884 28H130.312V31.4286H126.884V28ZM126.884 31.4286H130.312V34.8571H126.884V31.4286ZM126.884 34.8571H130.312V38.2857H126.884V34.8571ZM126.884 38.2857H130.312V41.7143H126.884V38.2857ZM126.884 41.7143H130.312V45.1429H126.884V41.7143ZM126.884 45.1429H130.312V48.5714H126.884V45.1429ZM123.455 45.1429H126.884V48.5714H123.455V45.1429ZM123.455 41.7143H126.884V45.1429H123.455V41.7143ZM123.455 38.2857H126.884V41.7143H123.455V38.2857ZM123.455 31.4286H126.884V34.8571H123.455V31.4286ZM120.027 45.1429H123.455V48.5714H120.027V45.1429ZM123.455 48.5714H126.884V52H123.455V48.5714ZM120.027 48.5714H123.455V52H120.027V48.5714ZM116.598 48.5714H120.027V52H116.598V48.5714ZM113.17 48.5714H116.598V52H113.17V48.5714ZM109.741 48.5714H113.17V52H109.741V48.5714ZM109.741 45.1429H113.17V48.5714H109.741V45.1429ZM113.17 45.1429H116.598V48.5714H113.17V45.1429ZM109.741 41.7143H113.17V45.1429H109.741V41.7143ZM106.312 45.1429H109.741V48.5714H106.312V45.1429ZM106.312 41.7143H109.741V45.1429H106.312V41.7143ZM106.312 38.2857H109.741V41.7143H106.312V38.2857ZM106.312 34.8571H109.741V38.2857H106.312V34.8571ZM106.312 31.4286H109.741V34.8571H106.312V31.4286ZM106.312 28H109.741V31.4286H106.312V28ZM109.741 31.4286H113.17V34.8571H109.741V31.4286ZM109.741 34.8571H113.17V38.2857H109.741V34.8571ZM109.741 38.2857H113.17V41.7143H109.741V38.2857ZM116.598 45.1429H120.027V48.5714H116.598V45.1429ZM116.598 28H120.027V31.4286H116.598V28ZM133.75 28H137.179V31.4286H133.75V28ZM133.75 24.5714H137.179V28H133.75V24.5714ZM137.179 24.5714H140.607V28H137.179V24.5714ZM137.179 28H140.607V31.4286H137.179V28ZM137.179 31.4286H140.607V34.8571H137.179V31.4286ZM137.179 34.8571H140.607V38.2857H137.179V34.8571ZM137.179 38.2857H140.607V41.7143H137.179V38.2857ZM133.75 38.2857H137.179V41.7143H133.75V38.2857ZM133.75 34.8571H137.179V38.2857H133.75V34.8571ZM133.75 31.4286H137.179V34.8571H133.75V31.4286ZM133.75 41.7143H137.179V45.1429H133.75V41.7143ZM137.179 41.7143H140.607V45.1429H137.179V41.7143ZM137.179 45.1429H140.607V48.5714H137.179V45.1429ZM137.179 48.5714H140.607V52H137.179V48.5714ZM133.75 48.5714H137.179V52H133.75V48.5714ZM133.75 45.1429H137.179V48.5714H133.75V45.1429ZM140.607 28H144.036V31.4286H140.607V28ZM144.036 28H147.464V31.4286H144.036V28ZM147.464 28H150.893V31.4286H147.464V28ZM147.464 24.5714H150.893V28H147.464V24.5714ZM144.036 24.5714H147.464V28H144.036V24.5714ZM140.607 31.4286H144.036V34.8571H140.607V31.4286ZM150.893 28H154.321V31.4286H150.893V28ZM147.464 31.4286H150.893V34.8571H147.464V31.4286ZM157.75 28H161.179V31.4286H157.75V28ZM157.75 24.5714H161.179V28H157.75V24.5714ZM161.179 24.5714H164.607V28H161.179V24.5714ZM161.179 28H164.607V31.4286H161.179V28ZM161.179 31.4286H164.607V34.8571H161.179V31.4286ZM161.179 34.8571H164.607V38.2857H161.179V34.8571ZM161.179 38.2857H164.607V41.7143H161.179V38.2857ZM157.75 38.2857H161.179V41.7143H157.75V38.2857ZM157.75 34.8571H161.179V38.2857H157.75V34.8571ZM157.75 31.4286H161.179V34.8571H157.75V31.4286ZM157.75 41.7143H161.179V45.1429H157.75V41.7143ZM161.179 41.7143H164.607V45.1429H161.179V41.7143ZM161.179 45.1429H164.607V48.5714H161.179V45.1429ZM161.179 48.5714H164.607V52H161.179V48.5714ZM157.75 48.5714H161.179V52H157.75V48.5714ZM157.75 45.1429H161.179V48.5714H157.75V45.1429ZM171.464 48.5714H174.893V52H171.464V48.5714ZM174.893 48.5714H178.321V52H174.893V48.5714ZM174.893 45.1429H178.321V48.5714H174.893V45.1429ZM174.893 41.7143H178.321V45.1429H174.893V41.7143ZM174.893 38.2857H178.321V41.7143H174.893V38.2857ZM174.893 34.8571H178.321V38.2857H174.893V34.8571ZM174.893 31.4286H178.321V34.8571H174.893V31.4286ZM174.893 28H178.321V31.4286H174.893V28ZM171.464 34.8571H174.893V38.2857H171.464V34.8571ZM171.464 38.2857H174.893V41.7143H171.464V38.2857ZM171.464 41.7143H174.893V45.1429H171.464V41.7143ZM171.464 45.1429H174.893V48.5714H171.464V45.1429ZM171.464 31.4286H174.893V34.8571H171.464V31.4286ZM164.607 28H168.036V31.4286H164.607V28ZM168.036 28H171.464V31.4286H168.036V28ZM171.464 24.5714H174.893V28H171.464V24.5714ZM171.464 28H174.893V31.4286H171.464V28ZM168.036 24.5714H171.464V28H168.036V24.5714ZM185.179 48.5714H188.607V52H185.179V48.5714ZM188.607 48.5714H192.036V52H188.607V48.5714ZM188.607 45.1429H192.036V48.5714H188.607V45.1429ZM188.607 41.7143H192.036V45.1429H188.607V41.7143ZM188.607 38.2857H192.036V41.7143H188.607V38.2857ZM188.607 34.8571H192.036V38.2857H188.607V34.8571ZM188.607 31.4286H192.036V34.8571H188.607V31.4286ZM188.607 28H192.036V31.4286H188.607V28ZM185.179 34.8571H188.607V38.2857H185.179V34.8571ZM185.179 38.2857H188.607V41.7143H185.179V38.2857ZM185.179 41.7143H188.607V45.1429H185.179V41.7143ZM185.179 45.1429H188.607V48.5714H185.179V45.1429ZM185.179 31.4286H188.607V34.8571H185.179V31.4286ZM178.321 28H181.75V31.4286H178.321V28ZM181.75 28H185.179V31.4286H181.75V28ZM185.179 24.5714H188.607V28H185.179V24.5714ZM185.179 28H188.607V31.4286H185.179V28ZM181.75 24.5714H185.179V28H181.75V24.5714ZM202.295 24.5714H205.723V28H202.295V24.5714ZM198.866 24.5714H202.295V28H198.866V24.5714ZM198.866 28H202.295V31.4286H198.866V28ZM202.295 28H205.723V31.4286H202.295V28ZM205.723 24.5714H209.152V28H205.723V24.5714ZM209.152 24.5714H212.58V28H209.152V24.5714ZM212.58 24.5714H216.009V28H212.58V24.5714ZM212.58 28H216.009V31.4286H212.58V28ZM209.152 28H212.58V31.4286H209.152V28ZM216.009 28H219.438V31.4286H216.009V28ZM216.009 31.4286H219.438V34.8571H216.009V31.4286ZM216.009 45.1429H219.438V48.5714H216.009V45.1429ZM212.58 45.1429H216.009V48.5714H212.58V45.1429ZM212.58 31.4286H216.009V34.8571H212.58V31.4286ZM209.152 45.1429H212.58V48.5714H209.152V45.1429ZM212.58 48.5714H216.009V52H212.58V48.5714ZM209.152 48.5714H212.58V52H209.152V48.5714ZM205.723 48.5714H209.152V52H205.723V48.5714ZM202.295 48.5714H205.723V52H202.295V48.5714ZM198.866 48.5714H202.295V52H198.866V48.5714ZM198.866 45.1429H202.295V48.5714H198.866V45.1429ZM202.295 45.1429H205.723V48.5714H202.295V45.1429ZM198.866 41.7143H202.295V45.1429H198.866V41.7143ZM195.438 45.1429H198.866V48.5714H195.438V45.1429ZM195.438 41.7143H198.866V45.1429H195.438V41.7143ZM195.438 38.2857H198.866V41.7143H195.438V38.2857ZM195.438 34.8571H198.866V38.2857H195.438V34.8571ZM195.438 31.4286H198.866V34.8571H195.438V31.4286ZM195.438 28H198.866V31.4286H195.438V28ZM198.866 31.4286H202.295V34.8571H198.866V31.4286ZM198.866 34.8571H202.295V38.2857H198.866V34.8571ZM198.866 38.2857H202.295V41.7143H198.866V38.2857ZM205.723 45.1429H209.152V48.5714H205.723V45.1429ZM205.723 28H209.152V31.4286H205.723V28ZM212.58 34.8571H216.009V38.2857H212.58V34.8571ZM216.009 34.8571H219.438V38.2857H216.009V34.8571ZM202.295 38.2857H205.723V41.7143H202.295V38.2857ZM205.723 38.2857H209.152V41.7143H205.723V38.2857ZM209.152 38.2857H212.58V41.7143H209.152V38.2857ZM212.58 38.2857H216.009V41.7143H212.58V38.2857ZM216.009 38.2857H219.438V41.7143H216.009V38.2857ZM209.152 34.8571H212.58V38.2857H209.152V34.8571ZM205.723 34.8571H209.152V38.2857H205.723V34.8571ZM202.295 34.8571H205.723V38.2857H202.295V34.8571ZM222.875 28H226.304V31.4286H222.875V28ZM222.875 24.5714H226.304V28H222.875V24.5714ZM226.304 24.5714H229.732V28H226.304V24.5714ZM226.304 28H229.732V31.4286H226.304V28ZM226.304 31.4286H229.732V34.8571H226.304V31.4286ZM226.304 34.8571H229.732V38.2857H226.304V34.8571ZM226.304 38.2857H229.732V41.7143H226.304V38.2857ZM222.875 38.2857H226.304V41.7143H222.875V38.2857ZM222.875 34.8571H226.304V38.2857H222.875V34.8571ZM222.875 31.4286H226.304V34.8571H222.875V31.4286ZM222.875 41.7143H226.304V45.1429H222.875V41.7143ZM226.304 41.7143H229.732V45.1429H226.304V41.7143ZM226.304 45.1429H229.732V48.5714H226.304V45.1429ZM226.304 48.5714H229.732V52H226.304V48.5714ZM222.875 48.5714H226.304V52H222.875V48.5714ZM222.875 45.1429H226.304V48.5714H222.875V45.1429ZM229.732 28H233.161V31.4286H229.732V28ZM233.161 28H236.589V31.4286H233.161V28ZM236.589 28H240.018V31.4286H236.589V28ZM236.589 24.5714H240.018V28H236.589V24.5714ZM233.161 24.5714H236.589V28H233.161V24.5714ZM229.732 31.4286H233.161V34.8571H229.732V31.4286ZM240.018 28H243.446V31.4286H240.018V28ZM236.589 31.4286H240.018V34.8571H236.589V31.4286ZM270.848 48.5714H274.277V52H270.848V48.5714ZM270.848 45.1429H274.277V48.5714H270.848V45.1429ZM270.848 41.7143H274.277V45.1429H270.848V41.7143ZM267.42 45.1429H270.848V48.5714H267.42V45.1429ZM267.42 41.7143H270.848V45.1429H267.42V41.7143ZM267.42 38.2857H270.848V41.7143H267.42V38.2857ZM263.991 41.7143H267.42V45.1429H263.991V41.7143ZM263.991 38.2857H267.42V41.7143H263.991V38.2857ZM274.277 41.7143H277.705V45.1429H274.277V41.7143ZM274.277 45.1429H277.705V48.5714H274.277V45.1429ZM274.277 38.2857H277.705V41.7143H274.277V38.2857ZM277.705 38.2857H281.134V41.7143H277.705V38.2857ZM277.705 41.7143H281.134V45.1429H277.705V41.7143ZM281.134 38.2857H284.562V41.7143H281.134V38.2857ZM260.562 38.2857H263.991V41.7143H260.562V38.2857ZM277.705 17.7143H281.134V21.1429H277.705V17.7143ZM281.134 17.7143H284.562V21.1429H281.134V17.7143ZM281.134 21.1429H284.562V24.5714H281.134V21.1429ZM281.134 24.5714H284.562V28H281.134V24.5714ZM281.134 28H284.562V31.4286H281.134V28ZM281.134 31.4286H284.562V34.8571H281.134V31.4286ZM277.705 31.4286H281.134V34.8571H277.705V31.4286ZM277.705 34.8571H281.134V38.2857H277.705V34.8571ZM277.705 28H281.134V31.4286H277.705V28ZM277.705 24.5714H281.134V28H277.705V24.5714ZM277.705 21.1429H281.134V24.5714H277.705V21.1429ZM281.134 34.8571H284.562V38.2857H281.134V34.8571ZM263.991 34.8571H267.42V38.2857H263.991V34.8571ZM260.562 34.8571H263.991V38.2857H260.562V34.8571ZM260.562 31.4286H263.991V34.8571H260.562V31.4286ZM263.991 31.4286H267.42V34.8571H263.991V31.4286ZM263.991 28H267.42V31.4286H263.991V28ZM260.562 28H263.991V31.4286H260.562V28ZM260.562 24.5714H263.991V28H260.562V24.5714ZM263.991 24.5714H267.42V28H263.991V24.5714ZM260.562 17.7143H263.991V21.1429H260.562V17.7143ZM263.991 17.7143H267.42V21.1429H263.991V17.7143ZM263.991 21.1429H267.42V24.5714H263.991V21.1429ZM260.562 21.1429H263.991V24.5714H260.562V21.1429ZM288 21.1429H291.429V24.5714H288V21.1429ZM288 24.5714H291.429V28H288V24.5714ZM291.429 24.5714H294.857V28H291.429V24.5714ZM291.429 21.1429H294.857V24.5714H291.429V21.1429ZM291.429 17.7143H294.857V21.1429H291.429V17.7143ZM294.857 17.7143H298.286V21.1429H294.857V17.7143ZM298.286 17.7143H301.714V21.1429H298.286V17.7143ZM301.714 17.7143H305.143V21.1429H301.714V17.7143ZM305.143 17.7143H308.571V21.1429H305.143V17.7143ZM305.143 21.1429H308.571V24.5714H305.143V21.1429ZM301.714 21.1429H305.143V24.5714H301.714V21.1429ZM298.286 21.1429H301.714V24.5714H298.286V21.1429ZM294.857 21.1429H298.286V24.5714H294.857V21.1429ZM305.143 24.5714H308.571V28H305.143V24.5714ZM308.571 24.5714H312V28H308.571V24.5714ZM308.571 21.1429H312V24.5714H308.571V21.1429ZM308.571 28H312V31.4286H308.571V28ZM305.143 28H308.571V31.4286H305.143V28ZM301.714 28H305.143V31.4286H301.714V28ZM301.714 31.4286H305.143V34.8571H301.714V31.4286ZM305.143 31.4286H308.571V34.8571H305.143V31.4286ZM298.286 31.4286H301.714V34.8571H298.286V31.4286ZM298.286 34.8571H301.714V38.2857H298.286V34.8571ZM301.714 34.8571H305.143V38.2857H301.714V34.8571ZM294.857 34.8571H298.286V38.2857H294.857V34.8571ZM294.857 38.2857H298.286V41.7143H294.857V38.2857ZM298.286 38.2857H301.714V41.7143H298.286V38.2857ZM291.429 38.2857H294.857V41.7143H291.429V38.2857ZM291.429 41.7143H294.857V45.1429H291.429V41.7143ZM294.857 41.7143H298.286V45.1429H294.857V41.7143ZM288 41.7143H291.429V45.1429H288V41.7143ZM288 45.1429H291.429V48.5714H288V45.1429ZM288 48.5714H291.429V52H288V48.5714ZM291.429 48.5714H294.857V52H291.429V48.5714ZM291.429 45.1429H294.857V48.5714H291.429V45.1429ZM294.857 45.1429H298.286V48.5714H294.857V45.1429ZM298.286 45.1429H301.714V48.5714H298.286V45.1429ZM298.286 48.5714H301.714V52H298.286V48.5714ZM301.714 48.5714H305.143V52H301.714V48.5714ZM305.143 48.5714H308.571V52H305.143V48.5714ZM308.571 48.5714H312V52H308.571V48.5714ZM308.571 45.1429H312V48.5714H308.571V45.1429ZM305.143 45.1429H308.571V48.5714H305.143V45.1429ZM301.714 45.1429H305.143V48.5714H301.714V45.1429ZM294.857 48.5714H298.286V52H294.857V48.5714Z" fill="url(#paint0_linear_75_5)"/>
<defs>
<linearGradient id="paint0_linear_75_5" x1="191.932" y1="69" x2="124.068" y2="-2.82031e-08" gradientUnits="userSpaceOnUse">
<stop stop-color="#2D6630"/>
<stop offset="1" stop-color="#3F8541"/>
</linearGradient>
</defs>
</svg>
