<svg width="128" height="95" viewBox="0 0 128 95" fill="none" xmlns="http://www.w3.org/2000/svg">
<g clip-path="url(#clip0_4_2)">
<path d="M122 0.5H6C2.96243 0.5 0.5 2.96243 0.5 6V89C0.5 92.0376 2.96243 94.5 6 94.5H122C125.038 94.5 127.5 92.0376 127.5 89V6C127.5 2.96243 125.038 0.5 122 0.5Z" fill="#778091" stroke="#E2E5E9"/>
<path d="M32.2441 33C32.2441 31.3431 33.5873 30 35.2441 30H127.023V89C127.023 91.7614 124.784 94 122.023 94H32.2441V33Z" fill="#20262D"/>
<path d="M46.8223 53L45.7051 49.8281H41.3379L40.2207 53H38.2441L42.4941 41.5312H44.5723L48.8145 53H46.8223ZM45.2207 48.2188L44.1348 45.0938C44.0931 44.9583 44.0332 44.7682 43.9551 44.5234C43.877 44.2734 43.7988 44.0208 43.7207 43.7656C43.6426 43.5052 43.5775 43.2866 43.5254 43.1095C43.4733 43.323 43.4082 43.5625 43.3301 43.8281C43.2572 44.0885 43.1842 44.3333 43.1113 44.5625C43.0436 44.7917 42.9915 44.9688 42.9551 45.0938L41.8613 48.2188H45.2207ZM53.5254 44.1875C54.6191 44.1875 55.4447 44.4298 56.002 44.9142C56.5645 45.3985 56.8457 46.1536 56.8457 47.1797V53H55.541L55.1895 51.7734H55.127C54.8822 52.0859 54.6296 52.3439 54.3691 52.547C54.1087 52.7501 53.8066 52.901 53.4629 53C53.1243 53.1042 52.7103 53.1562 52.2207 53.1562C51.7051 53.1562 51.2441 53.0625 50.8379 52.875C50.4316 52.6823 50.1113 52.3906 49.877 52C49.6426 51.6094 49.5254 51.1146 49.5254 50.5156C49.5254 49.625 49.8561 48.9558 50.5176 48.5079C51.1842 48.06 52.1895 47.8125 53.5332 47.7656L55.0332 47.7109V47.2579C55.0332 46.659 54.8926 46.2319 54.6113 45.9767C54.3353 45.7215 53.9447 45.5938 53.4395 45.5938C53.0072 45.5938 52.5879 45.6562 52.1816 45.7812C51.7754 45.9062 51.3796 46.0599 50.9941 46.2422L50.4004 44.9454C50.8223 44.7215 51.3014 44.5391 51.8379 44.3984C52.3796 44.2578 52.9421 44.1875 53.5254 44.1875ZM55.0254 48.8672L53.9082 48.9062C52.9915 48.9376 52.3483 49.0938 51.9785 49.375C51.6087 49.6562 51.4238 50.0418 51.4238 50.5312C51.4238 50.9584 51.5514 51.2708 51.8066 51.4688C52.0618 51.6615 52.3978 51.7579 52.8145 51.7579C53.4499 51.7579 53.9759 51.5781 54.3926 51.2188C54.8145 50.8542 55.0254 50.3203 55.0254 49.6172V48.8672Z" fill="white"/>
</g>
<defs>
<clipPath id="clip0_4_2">
<rect width="128" height="95" fill="white"/>
</clipPath>
</defs>
</svg>
